<?xml version="1.0" encoding="UTF-8"?>
<svg version="1.0" viewBox="0 0 65 110" xmlns="http://www.w3.org/2000/svg">
 <g transform="translate(-314.94 -506.47)">
  <g transform="matrix(.32461 0 0 .32461 311.61 432.07)">
   <path transform="matrix(.50501 0 0 .51971 74.594 308.71)" d="m70.875-123.34c-92.548 0-167.75 75.198-167.75 167.75 0 46.27 18.799 88.23 49.156 118.59 6.586 6.59 20.206 25.13 31.657 44.12 5.725 9.5 10.983 19.2 14.75 27.66 3.766 8.46 5.9058 15.91 5.9058 19.69v77.72l4.875-0.03 4.0312 15.25v9.78l114.56-9.97 0.25-0.03 4.35-15.47 4.5-0.03v-77.22c0-3.78 2.14-11.23 5.9-19.69 3.77-8.46 9.03-18.16 14.75-27.66 11.45-18.99 25.07-37.53 31.66-44.12 30.36-30.36 49.15-72.32 49.15-118.59 0-92.552-75.2-167.75-167.74-167.75zm0 9.78c87.245 0 157.96 70.72 157.96 157.97 0 43.619-17.68 83.09-46.28 111.68-8.15 8.16-21.4 26.48-33.15 45.97-5.88 9.75-11.3 19.71-15.32 28.72-4.01 9.02-6.75 16.89-6.75 23.69v67.47l-112.93 0.4-4e-3 -67.87c0-6.8-2.738-14.67-6.7498-23.69-4.0121-9.01-9.4378-18.97-15.312-28.72-11.75-19.49-25.004-37.81-33.156-45.97-28.597-28.59-46.282-68.061-46.282-111.68 0-87.25 70.723-157.97 157.97-157.97zm56.285 464.84l-112.47 9.81-1.19 2-3.6875 6.22 3.7185 6.22 1.031 1.75 112.5-9.78 1.19-2 3.69-6.19-3.69-6.19-1.09-1.84zm1.09 20.13l-114.56 10h-0.159v5.78l114.53-9.97 0.19-0.03v-5.78zm-1.09 9.87l-112.47 9.81-1.159 1.94-3.7185 6.28 3.7185 6.25 1.031 1.72 112.5-9.78 1.19-2 3.69-6.19-3.69-6.19-1.09-1.84zm1.09 20.13l-114.56 10h-0.159v5.78l114.53-9.97 0.19-0.03v-5.78zm-1.09 9.87l-112.47 9.81-1.159 1.94-3.7185 6.28 3.7495 6.28 1 1.69 112.5-9.78 1.19-2 3.69-6.19-3.69-6.19-1.09-1.84zm1.09 20.13l-114.56 10h-0.128v5.81l19.782 11.94 0.437-1.75h74.469l0.44 1.75 19.56-11.94v-15.81zm-86.562 30l11.656 6.25 1.031 0.56v1.19h33.25v-1.19l1.063-0.56 11.622-6.25h-58.622z" color="#000000"/>
  </g>
 </g>
</svg>
